<svg id="visual" viewBox="0 0 900 300" width="900" height="300" xmlns="http://www.w3.org/2000/svg" xmlns:xlink="http://www.w3.org/1999/xlink" version="1.1"><path d="M0 173L15 162.3C30 151.7 60 130.3 90 119.2C120 108 150 107 180 110.7C210 114.3 240 122.7 270 128C300 133.3 330 135.7 360 138C390 140.3 420 142.7 450 142.2C480 141.7 510 138.3 540 131.3C570 124.3 600 113.7 630 110.7C660 107.7 690 112.3 720 122.2C750 132 780 147 810 144C840 141 870 120 885 109.5L900 99L900 301L885 301C870 301 840 301 810 301C780 301 750 301 720 301C690 301 660 301 630 301C600 301 570 301 540 301C510 301 480 301 450 301C420 301 390 301 360 301C330 301 300 301 270 301C240 301 210 301 180 301C150 301 120 301 90 301C60 301 30 301 15 301L0 301Z" fill="#ffffff" stroke-linecap="round" stroke-linejoin="miter"></path></svg>